<svg xmlns="http://www.w3.org/2000/svg" xmlns:xlink="http://www.w3.org/1999/xlink" viewBox="0 0 1200 899"><defs><style>.cls-1{fill:url(#linear-gradient);}.cls-2{fill:url(#linear-gradient-2);}.cls-3{fill:url(#linear-gradient-3);}.cls-10,.cls-12,.cls-14,.cls-4,.cls-7,.cls-9{opacity:0.5;}.cls-4{fill:url(#linear-gradient-4);}.cls-5{fill:url(#linear-gradient-5);}.cls-6{fill:url(#linear-gradient-6);}.cls-7{fill:url(#linear-gradient-7);}.cls-8{fill:url(#linear-gradient-8);}.cls-9{fill:url(#linear-gradient-9);}.cls-10{fill:url(#linear-gradient-10);}.cls-11{fill:url(#linear-gradient-11);}.cls-12{fill:url(#linear-gradient-12);}.cls-13{fill:url(#linear-gradient-13);}.cls-14{fill:url(#linear-gradient-14);}</style><linearGradient id="linear-gradient" x1="221.25" y1="538.28" x2="278.98" y2="538.28" gradientUnits="userSpaceOnUse"><stop offset="0" stop-color="#45fcda"/><stop offset="1" stop-color="#2c8ba7"/></linearGradient><linearGradient id="linear-gradient-2" x1="383.77" y1="369.85" x2="679.65" y2="369.85" xlink:href="#linear-gradient"/><linearGradient id="linear-gradient-3" x1="289.41" y1="659.48" x2="472.65" y2="659.48" xlink:href="#linear-gradient"/><linearGradient id="linear-gradient-4" x1="264.72" y1="391.6" x2="455.28" y2="391.6" xlink:href="#linear-gradient"/><linearGradient id="linear-gradient-5" x1="518.73" y1="533.56" x2="822.21" y2="533.56" xlink:href="#linear-gradient"/><linearGradient id="linear-gradient-6" x1="412.24" y1="217.45" x2="703.8" y2="217.45" xlink:href="#linear-gradient"/><linearGradient id="linear-gradient-7" x1="726.83" y1="252.01" x2="912.67" y2="252.01" xlink:href="#linear-gradient"/><linearGradient id="linear-gradient-8" x1="743.49" y1="512.56" x2="934.27" y2="512.56" xlink:href="#linear-gradient"/><linearGradient id="linear-gradient-9" x1="494.69" y1="687.18" x2="794.3" y2="687.18" xlink:href="#linear-gradient"/><linearGradient id="linear-gradient-10" x1="329.05" y1="187.68" x2="386.78" y2="187.68" xlink:href="#linear-gradient"/><linearGradient id="linear-gradient-11" x1="681.82" y1="114.05" x2="739.56" y2="114.05" xlink:href="#linear-gradient"/><linearGradient id="linear-gradient-12" x1="921.02" y1="373.74" x2="978.75" y2="373.74" xlink:href="#linear-gradient"/><linearGradient id="linear-gradient-13" x1="819.81" y1="720.48" x2="877.54" y2="720.48" xlink:href="#linear-gradient"/><linearGradient id="linear-gradient-14" x1="460.44" y1="797.96" x2="518.18" y2="797.96" xlink:href="#linear-gradient"/></defs><g id="Graphic_Elements" data-name="Graphic Elements"><path class="cls-1" d="M271.35,518.72a28.86,28.86,0,1,1-40.79-1.67A28.8,28.8,0,0,1,271.35,518.72Z"/><path class="cls-2" d="M676.11,336.41c-.07.75-.16,1.49-.2,2.24a42.08,42.08,0,0,0,3.74,19.09L590.33,440,501,522.28a42,42,0,0,0-21-5.28L383.77,236.2a53.69,53.69,0,0,0,20.38-18.78Z"/><path class="cls-3" d="M302.33,555.61l137.39,12.64A41.69,41.69,0,0,0,468.54,599l2.87,110,1.24,47.74a44.3,44.3,0,0,0-11.32,6.66L289.41,576.7A54.55,54.55,0,0,0,302.33,555.61Z"/><path class="cls-4" d="M355.66,242.65c.89,0,1.77,0,2.66,0l97,282.8c-1.07.81-2.11,1.67-3.12,2.6a41.6,41.6,0,0,0-10.05,14.17L304.45,529.54a54.91,54.91,0,0,0-39.73-44.27L344.35,241A55.22,55.22,0,0,0,355.66,242.65Z"/><path class="cls-5" d="M522.22,563.35a42,42,0,0,0-3.49-21.84L697.37,377a42.11,42.11,0,0,0,21.47,5.26L822.21,672.3a53.71,53.71,0,0,0-19.39,17.85Z"/><path class="cls-6" d="M670.22,151.33A54.53,54.53,0,0,0,700.7,168.1l.11,4.73,3,128a41.6,41.6,0,0,0-14.41,8.67c-1,.93-1.95,1.9-2.85,2.9l-93.23-40.78-180.66-79c.08-.88.2-1.76.24-2.65a56.36,56.36,0,0,0-.65-11.05l244.07-56.41A54.71,54.71,0,0,0,670.22,151.33Z"/><path class="cls-7" d="M912.61,333.27a54.76,54.76,0,0,0-12.13,16.28l-141.6-17.32A41.53,41.53,0,0,0,730,300.29l-3.07-131.9,0-1.78A54.69,54.69,0,0,0,748,154.52l.06-.06L912.67,333.21Z"/><path class="cls-8" d="M850.93,665.51c-1.13,0-2.25,0-3.37,0l-104.07-292c.93-.72,1.85-1.46,2.73-2.27a41.64,41.64,0,0,0,9.52-13l139.2,17a54.75,54.75,0,0,0,39.33,51.22l-73,240.47A55.06,55.06,0,0,0,850.93,665.51Z"/><path class="cls-9" d="M522.08,767.77a44.26,44.26,0,0,0-23.33-13.3l-4.06-156.1a41.72,41.72,0,0,0,14.3-8.64c.88-.81,1.7-1.67,2.49-2.54L794,714.87c-.11,1.12-.25,2.23-.3,3.36a55.47,55.47,0,0,0,.6,10.73L532.54,787.17A44.22,44.22,0,0,0,522.08,767.77Z"/><path class="cls-10" d="M386.76,188.86a28.86,28.86,0,1,1-7.61-20.74A28.83,28.83,0,0,1,386.76,188.86Z"/><path class="cls-11" d="M730.25,135.28a28.86,28.86,0,1,1,9.28-20A28.87,28.87,0,0,1,730.25,135.28Z"/><path class="cls-12" d="M928.65,393.29A28.86,28.86,0,1,1,969.44,395,28.79,28.79,0,0,1,928.65,393.29Z"/><path class="cls-13" d="M819.83,719.3A28.87,28.87,0,1,1,827.44,740,28.75,28.75,0,0,1,819.83,719.3Z"/><path class="cls-14" d="M469.75,776.73a28.87,28.87,0,1,1-9.28,20A28.87,28.87,0,0,1,469.75,776.73Z"/></g></svg>