<svg xmlns="http://www.w3.org/2000/svg" xmlns:xlink="http://www.w3.org/1999/xlink" viewBox="0 0 40 40"><defs><style>.cls-1{fill:url(#linear-gradient);}.cls-2{fill:url(#linear-gradient-2);}.cls-3{fill:url(#linear-gradient-3);}.cls-10,.cls-12,.cls-14,.cls-4,.cls-7,.cls-9{opacity:0.5;}.cls-4{fill:url(#linear-gradient-4);}.cls-5{fill:url(#linear-gradient-5);}.cls-6{fill:url(#linear-gradient-6);}.cls-7{fill:url(#linear-gradient-7);}.cls-8{fill:url(#linear-gradient-8);}.cls-9{fill:url(#linear-gradient-9);}.cls-10{fill:url(#linear-gradient-10);}.cls-11{fill:url(#linear-gradient-11);}.cls-12{fill:url(#linear-gradient-12);}.cls-13{fill:url(#linear-gradient-13);}.cls-14{fill:url(#linear-gradient-14);}</style><linearGradient id="linear-gradient" y1="24.35" x2="3.05" y2="24.35" gradientUnits="userSpaceOnUse"><stop offset="0" stop-color="#45fcda"/><stop offset="1" stop-color="#2c8ba7"/></linearGradient><linearGradient id="linear-gradient-2" x1="8.58" y1="15.46" x2="24.21" y2="15.46" xlink:href="#linear-gradient"/><linearGradient id="linear-gradient-3" x1="3.6" y1="30.75" x2="13.28" y2="30.75" xlink:href="#linear-gradient"/><linearGradient id="linear-gradient-4" x1="2.3" y1="16.61" x2="12.36" y2="16.61" xlink:href="#linear-gradient"/><linearGradient id="linear-gradient-5" x1="15.71" y1="24.1" x2="31.73" y2="24.1" xlink:href="#linear-gradient"/><linearGradient id="linear-gradient-6" x1="10.08" y1="7.41" x2="25.48" y2="7.41" xlink:href="#linear-gradient"/><linearGradient id="linear-gradient-7" x1="26.7" y1="9.23" x2="36.51" y2="9.23" xlink:href="#linear-gradient"/><linearGradient id="linear-gradient-8" x1="27.58" y1="22.99" x2="37.65" y2="22.99" xlink:href="#linear-gradient"/><linearGradient id="linear-gradient-9" x1="14.44" y1="32.21" x2="30.26" y2="32.21" xlink:href="#linear-gradient"/><linearGradient id="linear-gradient-10" x1="5.69" y1="5.84" x2="8.74" y2="5.84" xlink:href="#linear-gradient"/><linearGradient id="linear-gradient-11" x1="24.32" y1="1.95" x2="27.37" y2="1.95" xlink:href="#linear-gradient"/><linearGradient id="linear-gradient-12" x1="36.95" y1="15.66" x2="40" y2="15.66" xlink:href="#linear-gradient"/><linearGradient id="linear-gradient-13" x1="31.61" y1="33.97" x2="34.66" y2="33.97" xlink:href="#linear-gradient"/><linearGradient id="linear-gradient-14" x1="12.63" y1="38.06" x2="15.68" y2="38.06" xlink:href="#linear-gradient"/></defs><g id="Graphic_Elements" data-name="Graphic Elements"><path class="cls-1" d="M2.65,23.32a1.55,1.55,0,0,1,.4,1.09,1.53,1.53,0,0,1-2.65,1,1.52,1.52,0,0,1,.09-2.15A1.53,1.53,0,0,1,2.65,23.32Z"/><path class="cls-2" d="M24,13.69s0,.08,0,.12a2.1,2.1,0,0,0,.2,1l-4.72,4.34-4.72,4.35a2.15,2.15,0,0,0-1.1-.28L8.58,8.4A3.22,3.22,0,0,0,9.18,8a2.85,2.85,0,0,0,.48-.57Z"/><path class="cls-3" d="M4.28,25.27l7.26.66a2.18,2.18,0,0,0,.52,1,2.25,2.25,0,0,0,1,.62l.15,5.8.07,2.52a2.28,2.28,0,0,0-.6.36L3.6,26.38A3,3,0,0,0,4.28,25.27Z"/><path class="cls-4" d="M7.1,8.74h.14l5.12,14.93-.17.14a2.18,2.18,0,0,0-.53.75l-7.27-.67a2.93,2.93,0,0,0-.73-1.51,2.88,2.88,0,0,0-1.36-.83L6.5,8.65A2.89,2.89,0,0,0,7.1,8.74Z"/><path class="cls-5" d="M15.89,25.68a2.33,2.33,0,0,0-.18-1.16l9.43-8.69a2.17,2.17,0,0,0,1.14.28l5.45,15.32a2.73,2.73,0,0,0-.57.41,3.24,3.24,0,0,0-.45.53Z"/><path class="cls-6" d="M23.71,3.92a2.83,2.83,0,0,0,1.61.88v.25l.16,6.76a2.31,2.31,0,0,0-.76.46l-.15.16-4.92-2.16L10.11,6.1s0-.1,0-.14a2.31,2.31,0,0,0,0-.59L23,2.4A2.9,2.9,0,0,0,23.71,3.92Z"/><path class="cls-7" d="M36.51,13.53a2.69,2.69,0,0,0-.64.86l-7.48-.92a2.18,2.18,0,0,0-.54-1.07,2.22,2.22,0,0,0-1-.62l-.16-7V4.73a2.88,2.88,0,0,0,1.11-.64h0l8.69,9.44Z"/><path class="cls-8" d="M33.25,31.07h-.18L27.58,15.65l.14-.12a2.07,2.07,0,0,0,.5-.69l7.35.9a2.92,2.92,0,0,0,2.08,2.71L33.79,31.14A3.06,3.06,0,0,0,33.25,31.07Z"/><path class="cls-9" d="M15.89,36.47a2.39,2.39,0,0,0-1.24-.7l-.21-8.25a2,2,0,0,0,.75-.45,1.85,1.85,0,0,0,.14-.14l14.91,6.75c0,.06,0,.11,0,.17a2.66,2.66,0,0,0,0,.57L16.44,37.49A2.48,2.48,0,0,0,15.89,36.47Z"/><path class="cls-10" d="M8.74,5.9A1.55,1.55,0,0,1,8.25,7a1.53,1.53,0,1,1,.09-2.15A1.5,1.5,0,0,1,8.74,5.9Z"/><path class="cls-11" d="M26.88,3.07A1.53,1.53,0,0,1,24.72,3a1.55,1.55,0,0,1-.4-1.09A1.53,1.53,0,0,1,27,.92,1.55,1.55,0,0,1,27.37,2,1.53,1.53,0,0,1,26.88,3.07Z"/><path class="cls-12" d="M37.35,16.7a1.58,1.58,0,0,1-.4-1.1,1.53,1.53,0,0,1,2.65-1,1.58,1.58,0,0,1,.4,1.1,1.5,1.5,0,0,1-.49,1.05A1.54,1.54,0,0,1,37.35,16.7Z"/><path class="cls-13" d="M31.61,33.91a1.52,1.52,0,1,1,3,.13,1.46,1.46,0,0,1-.49,1.05A1.53,1.53,0,0,1,32,35,1.49,1.49,0,0,1,31.61,33.91Z"/><path class="cls-14" d="M13.12,36.94a1.53,1.53,0,0,1,2.16.09,1.58,1.58,0,0,1,.4,1.1,1.53,1.53,0,0,1-2.65,1,1.58,1.58,0,0,1-.4-1.1A1.55,1.55,0,0,1,13.12,36.94Z"/></g></svg>